<svg xmlns="http://www.w3.org/2000/svg" viewBox="0 0 1050 496" role="img" aria-label="累计猜出的口令比例（全部账户） / 累计攻击次数（估计猜测预算）"><path d="M75 325.0H840" stroke="#e5ebf3"/><text x="65" y="329.0" text-anchor="end" font-size="11" fill="#607087">0.00%</text><path d="M75 270.0H840" stroke="#e5ebf3"/><text x="65" y="274.0" text-anchor="end" font-size="11" fill="#607087">7.03%</text><path d="M75 215.0H840" stroke="#e5ebf3"/><text x="65" y="219.0" text-anchor="end" font-size="11" fill="#607087">14.06%</text><path d="M75 160.0H840" stroke="#e5ebf3"/><text x="65" y="164.0" text-anchor="end" font-size="11" fill="#607087">21.09%</text><path d="M75 105.0H840" stroke="#e5ebf3"/><text x="65" y="109.0" text-anchor="end" font-size="11" fill="#607087">28.12%</text><path d="M75 50.0H840" stroke="#e5ebf3"/><text x="65" y="54.0" text-anchor="end" font-size="11" fill="#607087">35.15%</text><text class="x-tick" x="75.00" y="345" text-anchor="middle" font-size="11" fill="#607087">10⁰</text><text class="x-tick" x="202.50" y="345" text-anchor="middle" font-size="11" fill="#607087">10¹</text><text class="x-tick" x="330.00" y="345" text-anchor="middle" font-size="11" fill="#607087">10²</text><text class="x-tick" x="457.50" y="345" text-anchor="middle" font-size="11" fill="#607087">10³</text><text class="x-tick" x="585.00" y="345" text-anchor="middle" font-size="11" fill="#607087">10⁴</text><text class="x-tick" x="712.50" y="345" text-anchor="middle" font-size="11" fill="#607087">10⁵</text><text class="x-tick" x="840.00" y="345" text-anchor="middle" font-size="11" fill="#607087">10⁶</text><g class="plot-series series-0" data-series="原始分布（无干预）"><polyline fill="none" stroke="#2563eb" stroke-width="2.5" points="75.00,317.61 202.50,309.27 330.00,291.38 457.50,242.28 585.00,199.33 712.50,122.31 840.00,79.46"/><circle cx="75.00" cy="317.61" r="4" fill="white" stroke="#2563eb" stroke-width="1.8"><title>原始分布（无干预）；累计攻击次数（估计猜测预算）：10⁰；累计猜出的口令比例（全部账户）：0.95%</title></circle><circle cx="202.50" cy="309.27" r="4" fill="white" stroke="#2563eb" stroke-width="1.8"><title>原始分布（无干预）；累计攻击次数（估计猜测预算）：10¹；累计猜出的口令比例（全部账户）：2.01%</title></circle><circle cx="330.00" cy="291.38" r="4" fill="white" stroke="#2563eb" stroke-width="1.8"><title>原始分布（无干预）；累计攻击次数（估计猜测预算）：10²；累计猜出的口令比例（全部账户）：4.30%</title></circle><circle cx="457.50" cy="242.28" r="4" fill="white" stroke="#2563eb" stroke-width="1.8"><title>原始分布（无干预）；累计攻击次数（估计猜测预算）：10³；累计猜出的口令比例（全部账户）：10.57%</title></circle><circle cx="585.00" cy="199.33" r="4" fill="white" stroke="#2563eb" stroke-width="1.8"><title>原始分布（无干预）；累计攻击次数（估计猜测预算）：10⁴；累计猜出的口令比例（全部账户）：16.06%</title></circle><circle cx="712.50" cy="122.31" r="4" fill="white" stroke="#2563eb" stroke-width="1.8"><title>原始分布（无干预）；累计攻击次数（估计猜测预算）：10⁵；累计猜出的口令比例（全部账户）：25.91%</title></circle><circle cx="840.00" cy="79.46" r="4" fill="white" stroke="#2563eb" stroke-width="1.8"><title>原始分布（无干预）；累计攻击次数（估计猜测预算）：10⁶；累计猜出的口令比例（全部账户）：31.38%</title></circle></g><g class="plot-series series-1" data-series="Google 基础策略"><polyline fill="none" stroke="#e16b24" stroke-width="2.5" points="75.00,322.92 202.50,317.43 330.00,307.07 457.50,294.53 585.00,264.56 712.50,215.16 840.00,178.53"/><circle cx="75.00" cy="322.92" r="4" fill="white" stroke="#e16b24" stroke-width="1.8"><title>Google 基础策略；累计攻击次数（估计猜测预算）：10⁰；累计猜出的口令比例（全部账户）：0.27%</title></circle><circle cx="202.50" cy="317.43" r="4" fill="white" stroke="#e16b24" stroke-width="1.8"><title>Google 基础策略；累计攻击次数（估计猜测预算）：10¹；累计猜出的口令比例（全部账户）：0.97%</title></circle><circle cx="330.00" cy="307.07" r="4" fill="white" stroke="#e16b24" stroke-width="1.8"><title>Google 基础策略；累计攻击次数（估计猜测预算）：10²；累计猜出的口令比例（全部账户）：2.29%</title></circle><circle cx="457.50" cy="294.53" r="4" fill="white" stroke="#e16b24" stroke-width="1.8"><title>Google 基础策略；累计攻击次数（估计猜测预算）：10³；累计猜出的口令比例（全部账户）：3.89%</title></circle><circle cx="585.00" cy="264.56" r="4" fill="white" stroke="#e16b24" stroke-width="1.8"><title>Google 基础策略；累计攻击次数（估计猜测预算）：10⁴；累计猜出的口令比例（全部账户）：7.72%</title></circle><circle cx="712.50" cy="215.16" r="4" fill="white" stroke="#e16b24" stroke-width="1.8"><title>Google 基础策略；累计攻击次数（估计猜测预算）：10⁵；累计猜出的口令比例（全部账户）：14.04%</title></circle><circle cx="840.00" cy="178.53" r="4" fill="white" stroke="#e16b24" stroke-width="1.8"><title>Google 基础策略；累计攻击次数（估计猜测预算）：10⁶；累计猜出的口令比例（全部账户）：18.72%</title></circle></g><g class="plot-series series-2" data-series="Google＋随机分批调整"><polyline fill="none" stroke="#189b80" stroke-width="2.5" points="75.00,323.11 202.50,318.32 330.00,309.26 457.50,297.29 585.00,269.90 712.50,222.37 840.00,184.67"/><circle cx="75.00" cy="323.11" r="4" fill="white" stroke="#189b80" stroke-width="1.8"><title>Google＋随机分批调整；累计攻击次数（估计猜测预算）：10⁰；累计猜出的口令比例（全部账户）：0.24%</title></circle><circle cx="202.50" cy="318.32" r="4" fill="white" stroke="#189b80" stroke-width="1.8"><title>Google＋随机分批调整；累计攻击次数（估计猜测预算）：10¹；累计猜出的口令比例（全部账户）：0.85%</title></circle><circle cx="330.00" cy="309.26" r="4" fill="white" stroke="#189b80" stroke-width="1.8"><title>Google＋随机分批调整；累计攻击次数（估计猜测预算）：10²；累计猜出的口令比例（全部账户）：2.01%</title></circle><circle cx="457.50" cy="297.29" r="4" fill="white" stroke="#189b80" stroke-width="1.8"><title>Google＋随机分批调整；累计攻击次数（估计猜测预算）：10³；累计猜出的口令比例（全部账户）：3.54%</title></circle><circle cx="585.00" cy="269.90" r="4" fill="white" stroke="#189b80" stroke-width="1.8"><title>Google＋随机分批调整；累计攻击次数（估计猜测预算）：10⁴；累计猜出的口令比例（全部账户）：7.04%</title></circle><circle cx="712.50" cy="222.37" r="4" fill="white" stroke="#189b80" stroke-width="1.8"><title>Google＋随机分批调整；累计攻击次数（估计猜测预算）：10⁵；累计猜出的口令比例（全部账户）：13.12%</title></circle><circle cx="840.00" cy="184.67" r="4" fill="white" stroke="#189b80" stroke-width="1.8"><title>Google＋随机分批调整；累计攻击次数（估计猜测预算）：10⁶；累计猜出的口令比例（全部账户）：17.94%</title></circle></g><g class="plot-series series-3" data-series="Google＋初始排序后分批执行"><polyline fill="none" stroke="#a855b5" stroke-width="2.5" points="75.00,323.58 202.50,321.43 330.00,316.89 457.50,308.96 585.00,284.87 712.50,235.06 840.00,189.35"/><circle cx="75.00" cy="323.58" r="4" fill="white" stroke="#a855b5" stroke-width="1.8"><title>Google＋初始排序后分批执行；累计攻击次数（估计猜测预算）：10⁰；累计猜出的口令比例（全部账户）：0.18%</title></circle><circle cx="202.50" cy="321.43" r="4" fill="white" stroke="#a855b5" stroke-width="1.8"><title>Google＋初始排序后分批执行；累计攻击次数（估计猜测预算）：10¹；累计猜出的口令比例（全部账户）：0.46%</title></circle><circle cx="330.00" cy="316.89" r="4" fill="white" stroke="#a855b5" stroke-width="1.8"><title>Google＋初始排序后分批执行；累计攻击次数（估计猜测预算）：10²；累计猜出的口令比例（全部账户）：1.04%</title></circle><circle cx="457.50" cy="308.96" r="4" fill="white" stroke="#a855b5" stroke-width="1.8"><title>Google＋初始排序后分批执行；累计攻击次数（估计猜测预算）：10³；累计猜出的口令比例（全部账户）：2.05%</title></circle><circle cx="585.00" cy="284.87" r="4" fill="white" stroke="#a855b5" stroke-width="1.8"><title>Google＋初始排序后分批执行；累计攻击次数（估计猜测预算）：10⁴；累计猜出的口令比例（全部账户）：5.13%</title></circle><circle cx="712.50" cy="235.06" r="4" fill="white" stroke="#a855b5" stroke-width="1.8"><title>Google＋初始排序后分批执行；累计攻击次数（估计猜测预算）：10⁵；累计猜出的口令比例（全部账户）：11.49%</title></circle><circle cx="840.00" cy="189.35" r="4" fill="white" stroke="#a855b5" stroke-width="1.8"><title>Google＋初始排序后分批执行；累计攻击次数（估计猜测预算）：10⁶；累计猜出的口令比例（全部账户）：17.34%</title></circle></g><g class="plot-series series-4" data-series="Google＋每轮重新评估的动态调整（8 轮后停止）"><polyline fill="none" stroke="#cc4255" stroke-width="2.5" stroke-dasharray="9 5" points="75.00,323.58 202.50,321.43 330.00,316.96 457.50,308.51 585.00,282.89 712.50,231.54 840.00,187.54"/><rect x="71.00" y="319.58" width="8" height="8" fill="white" stroke="#cc4255" stroke-width="1.8"><title>Google＋每轮重新评估的动态调整（8 轮后停止）；累计攻击次数（估计猜测预算）：10⁰；累计猜出的口令比例（全部账户）：0.18%</title></rect><rect x="198.50" y="317.43" width="8" height="8" fill="white" stroke="#cc4255" stroke-width="1.8"><title>Google＋每轮重新评估的动态调整（8 轮后停止）；累计攻击次数（估计猜测预算）：10¹；累计猜出的口令比例（全部账户）：0.46%</title></rect><rect x="326.00" y="312.96" width="8" height="8" fill="white" stroke="#cc4255" stroke-width="1.8"><title>Google＋每轮重新评估的动态调整（8 轮后停止）；累计攻击次数（估计猜测预算）：10²；累计猜出的口令比例（全部账户）：1.03%</title></rect><rect x="453.50" y="304.51" width="8" height="8" fill="white" stroke="#cc4255" stroke-width="1.8"><title>Google＋每轮重新评估的动态调整（8 轮后停止）；累计攻击次数（估计猜测预算）：10³；累计猜出的口令比例（全部账户）：2.11%</title></rect><rect x="581.00" y="278.89" width="8" height="8" fill="white" stroke="#cc4255" stroke-width="1.8"><title>Google＋每轮重新评估的动态调整（8 轮后停止）；累计攻击次数（估计猜测预算）：10⁴；累计猜出的口令比例（全部账户）：5.38%</title></rect><rect x="708.50" y="227.54" width="8" height="8" fill="white" stroke="#cc4255" stroke-width="1.8"><title>Google＋每轮重新评估的动态调整（8 轮后停止）；累计攻击次数（估计猜测预算）：10⁵；累计猜出的口令比例（全部账户）：11.95%</title></rect><rect x="836.00" y="183.54" width="8" height="8" fill="white" stroke="#cc4255" stroke-width="1.8"><title>Google＋每轮重新评估的动态调整（8 轮后停止）；累计攻击次数（估计猜测预算）：10⁶；累计猜出的口令比例（全部账户）：17.57%</title></rect></g><text x="460" y="375" text-anchor="middle" font-size="13">累计攻击次数（估计猜测预算）（对数刻度）</text><text x="75" y="25" font-size="13">累计猜出的口令比例（全部账户）</text><g aria-label="图例" font-size="12" fill="#20304a"><svg x="75" y="393" width="44" height="16" viewBox="0 0 44 16" aria-hidden="true"><path d="M1 8H43" stroke="#2563eb" stroke-width="2.5"/><circle cx="22.00" cy="8.00" r="3" fill="white" stroke="#2563eb" stroke-width="1.8"></circle></svg><text x="127" y="405">原始分布（无干预）</text><svg x="555" y="393" width="44" height="16" viewBox="0 0 44 16" aria-hidden="true"><path d="M1 8H43" stroke="#e16b24" stroke-width="2.5"/><circle cx="22.00" cy="8.00" r="3" fill="white" stroke="#e16b24" stroke-width="1.8"></circle></svg><text x="607" y="405">Google 基础策略</text><svg x="75" y="415" width="44" height="16" viewBox="0 0 44 16" aria-hidden="true"><path d="M1 8H43" stroke="#189b80" stroke-width="2.5"/><circle cx="22.00" cy="8.00" r="3" fill="white" stroke="#189b80" stroke-width="1.8"></circle></svg><text x="127" y="427">Google＋随机分批调整</text><svg x="555" y="415" width="44" height="16" viewBox="0 0 44 16" aria-hidden="true"><path d="M1 8H43" stroke="#a855b5" stroke-width="2.5"/><circle cx="22.00" cy="8.00" r="3" fill="white" stroke="#a855b5" stroke-width="1.8"></circle></svg><text x="607" y="427">Google＋初始排序后分批执行</text><svg x="75" y="437" width="44" height="16" viewBox="0 0 44 16" aria-hidden="true"><path d="M1 8H43" stroke="#cc4255" stroke-width="2.5" stroke-dasharray="9 5"/><rect x="19.00" y="5.00" width="6" height="6" fill="white" stroke="#cc4255" stroke-width="1.8"></rect></svg><text x="127" y="449">Google＋每轮重新评估的动态调整（8 轮后停止）</text></g></svg>
