<svg xmlns="http://www.w3.org/2000/svg" viewBox="0 0 1050 470" role="img" aria-label="前 r 个口令覆盖的账户比例 / 按频次排序的口令排名 r"><path d="M75 325.0H840" stroke="#e5ebf3"/><text x="65" y="329.0" text-anchor="end" font-size="11" fill="#607087">0.00%</text><path d="M75 270.0H840" stroke="#e5ebf3"/><text x="65" y="274.0" text-anchor="end" font-size="11" fill="#607087">20.00%</text><path d="M75 215.0H840" stroke="#e5ebf3"/><text x="65" y="219.0" text-anchor="end" font-size="11" fill="#607087">40.00%</text><path d="M75 160.0H840" stroke="#e5ebf3"/><text x="65" y="164.0" text-anchor="end" font-size="11" fill="#607087">60.00%</text><path d="M75 105.0H840" stroke="#e5ebf3"/><text x="65" y="109.0" text-anchor="end" font-size="11" fill="#607087">80.00%</text><path d="M75 50.0H840" stroke="#e5ebf3"/><text x="65" y="54.0" text-anchor="end" font-size="11" fill="#607087">100.00%</text><text class="x-tick" x="75.00" y="345" text-anchor="middle" font-size="11" fill="#607087">1</text><text class="x-tick" x="228.93" y="345" text-anchor="middle" font-size="11" fill="#607087">10</text><text class="x-tick" x="382.87" y="345" text-anchor="middle" font-size="11" fill="#607087">100</text><text class="x-tick" x="536.80" y="345" text-anchor="middle" font-size="11" fill="#607087">1,000</text><text class="x-tick" x="690.74" y="345" text-anchor="middle" font-size="11" fill="#607087">10,000</text><g class="plot-series series-0" data-series="实际累计分布"><polyline fill="none" stroke="#2563eb" stroke-width="2.5" points="75.00,324.34 121.34,323.83 148.45,323.44 167.68,323.16 182.60,322.93 194.78,322.72 205.09,322.55 214.02,322.43 221.89,322.31 228.93,322.18 235.31,322.08 241.12,322.00 246.47,321.91 251.43,321.82 256.04,321.74 260.36,321.65 264.41,321.57 268.23,321.50 271.84,321.43 275.27,321.36 278.54,321.29 281.65,321.22 284.62,321.16 287.46,321.10 290.19,321.04 292.81,320.98 295.34,320.92 297.77,320.87 300.11,320.81 302.38,320.76 304.57,320.71 306.69,320.65 310.75,320.55 314.57,320.45 316.40,320.41 319.92,320.31 323.26,320.23 326.45,320.14 329.49,320.06 332.39,319.98 335.18,319.90 339.15,319.79 341.68,319.72 345.29,319.61 347.60,319.55 350.91,319.45 354.07,319.35 357.09,319.26 359.97,319.16 363.64,319.04 366.26,318.95 369.60,318.84 372.79,318.73 375.83,318.62 378.73,318.51 382.20,318.39 384.85,318.29 388.01,318.17 391.04,318.05 394.50,317.92 397.25,317.81 400.41,317.67 403.43,317.55 406.78,317.42 409.53,317.30 412.60,317.17 415.94,317.01 418.74,316.90 422.16,316.75 425.07,316.62 428.20,316.47 431.18,316.32 434.35,316.15 437.38,315.99 440.56,315.81 443.59,315.66 446.49,315.51 449.76,315.33 452.89,315.15 455.87,314.98 458.94,314.78 462.08,314.58 465.07,314.40 468.13,314.22 471.23,314.04 474.37,313.84 477.36,313.64 480.54,313.42 483.57,313.20 486.61,312.97 489.66,312.75 492.83,312.55 495.86,312.35 498.87,312.14 501.98,311.92 505.06,311.69 508.11,311.45 511.22,311.19 514.28,310.93 517.39,310.65 520.45,310.36 523.54,310.06 526.57,309.74 529.69,309.40 532.74,309.14 535.79,308.89 538.91,308.63 541.95,308.37 545.03,308.09 548.10,307.80 551.18,307.49 554.24,307.17 557.31,306.84 560.39,306.48 563.46,306.12 566.53,305.73 569.63,305.32 572.71,304.90 575.76,304.46 578.83,304.00 581.89,303.51 584.99,303.00 588.07,302.47 591.14,301.91 594.21,301.33 597.28,300.72 600.35,300.08 603.43,299.41 606.49,298.71 609.58,298.27 612.64,297.88 615.70,297.48 618.79,297.06 621.86,296.62 624.93,296.16 628.01,295.67 631.08,295.17 634.15,294.64 637.22,294.08 640.29,293.50 643.36,292.90 646.44,292.26 649.51,291.59 652.58,290.89 655.66,290.16 658.73,289.40 661.81,288.60 664.88,287.76 667.95,286.88 671.02,285.96 674.09,285.00 677.16,283.99 680.23,282.93 683.31,281.83 686.38,280.67 689.46,279.46 692.53,278.19 695.60,276.86 698.67,275.47 701.75,274.01 704.82,272.49 707.89,270.89 710.96,269.22 714.03,267.47 717.11,265.64 720.18,263.72 723.25,261.71 726.32,259.61 729.40,257.40 732.47,255.10 735.54,252.68 738.61,250.16 741.68,247.51 744.76,244.74 747.83,241.84 750.90,238.80 753.97,235.62 757.05,232.29 760.12,228.80 763.19,225.15 766.26,221.33 769.34,217.32 772.41,213.13 775.48,208.75 778.55,204.15 781.63,199.34 784.70,194.31 787.77,189.03 790.84,183.51 793.92,177.73 796.99,171.68 800.06,165.34 803.13,158.70 806.20,151.76 809.28,144.48 812.35,136.86 815.42,128.89 818.49,120.54 821.57,111.80 824.64,102.65 827.71,93.06 830.78,83.03 833.86,72.52 836.93,61.52 840.00,50.00"/></g><g class="plot-series series-1" data-series="CDF 采样拟合（5 次复核均值）"><polyline fill="none" stroke="#e16b24" stroke-width="2.5" stroke-dasharray="9 5" points="75.00,323.66 121.34,323.30 148.45,323.07 167.68,322.89 182.60,322.73 194.78,322.58 205.09,322.45 214.02,322.32 221.89,322.22 228.93,322.12 235.31,322.02 241.12,321.93 246.47,321.84 251.43,321.77 256.04,321.69 260.36,321.62 264.41,321.56 268.23,321.49 271.84,321.43 275.27,321.37 278.54,321.31 281.65,321.25 284.62,321.19 287.46,321.14 290.19,321.08 292.81,321.03 295.34,320.98 297.77,320.93 300.11,320.88 302.38,320.83 304.57,320.78 306.69,320.74 310.75,320.65 314.57,320.56 316.40,320.52 319.92,320.44 323.26,320.35 326.45,320.28 329.49,320.20 332.39,320.13 335.18,320.06 339.15,319.95 341.68,319.89 345.29,319.79 347.60,319.73 350.91,319.65 354.07,319.56 357.09,319.48 359.97,319.39 363.64,319.29 366.26,319.21 369.60,319.11 372.79,319.01 375.83,318.91 378.73,318.82 382.20,318.70 384.85,318.62 388.01,318.51 391.04,318.40 394.50,318.28 397.25,318.17 400.41,318.06 403.43,317.94 406.78,317.81 409.53,317.70 412.60,317.58 415.94,317.44 418.74,317.32 422.16,317.17 425.07,317.04 428.20,316.90 431.18,316.77 434.35,316.63 437.38,316.49 440.56,316.34 443.59,316.19 446.49,316.04 449.76,315.86 452.89,315.69 455.87,315.54 458.94,315.39 462.08,315.22 465.07,315.06 468.13,314.88 471.23,314.69 474.37,314.50 477.36,314.30 480.54,314.08 483.57,313.89 486.61,313.69 489.66,313.51 492.83,313.31 495.86,313.12 498.87,312.91 501.98,312.69 505.06,312.46 508.11,312.22 511.22,311.96 514.28,311.70 517.39,311.42 520.45,311.13 523.54,310.82 526.57,310.51 529.69,310.19 532.74,309.96 535.79,309.72 538.91,309.46 541.95,309.19 545.03,308.91 548.10,308.62 551.18,308.31 554.24,308.00 557.31,307.66 560.39,307.31 563.46,306.94 566.53,306.55 569.63,306.15 572.71,305.72 575.76,305.28 578.83,304.82 581.89,304.34 584.99,303.83 588.07,303.29 591.14,302.74 594.21,302.15 597.28,301.54 600.35,300.91 603.43,300.24 606.49,299.54 609.58,298.80 612.64,298.04 615.70,297.23 618.79,296.50 621.86,296.06 624.93,295.60 628.01,295.11 631.08,294.61 634.15,294.08 637.22,293.52 640.29,292.94 643.36,292.33 646.44,291.70 649.51,291.03 652.58,290.33 655.66,289.60 658.73,288.84 661.81,288.03 664.88,287.19 667.95,286.32 671.02,285.40 674.09,284.43 677.16,283.43 680.23,282.37 683.31,281.27 686.38,280.11 689.46,278.90 692.53,277.63 695.60,276.30 698.67,274.91 701.75,273.45 704.82,271.93 707.89,270.33 710.96,268.66 714.03,266.91 717.11,265.08 720.18,263.16 723.25,261.15 726.32,259.05 729.40,256.84 732.47,254.54 735.54,252.12 738.61,249.59 741.68,246.95 744.76,244.18 747.83,241.28 750.90,238.24 753.97,235.06 757.05,231.73 760.12,228.24 763.19,224.59 766.26,220.77 769.34,216.76 772.41,212.57 775.48,208.18 778.55,203.59 781.63,198.78 784.70,193.74 787.77,188.47 790.84,182.95 793.92,177.17 796.99,171.11 800.06,164.78 803.13,158.14 806.20,151.19 809.28,143.92 812.35,136.30 815.42,128.33 818.49,119.98 821.57,111.24 824.64,102.08 827.71,92.50 830.78,82.47 833.86,71.96 836.93,60.96 840.00,50.00"/></g><text x="460" y="375" text-anchor="middle" font-size="13">按频次排序的口令排名 r（对数刻度）</text><text x="75" y="25" font-size="13">前 r 个口令覆盖的账户比例</text><g aria-label="图例" font-size="12" fill="#20304a"><svg x="75" y="393" width="44" height="16" viewBox="0 0 44 16" aria-hidden="true"><path d="M1 8H43" stroke="#2563eb" stroke-width="2.5"/><circle cx="22.00" cy="8.00" r="3" fill="white" stroke="#2563eb" stroke-width="1.8"></circle></svg><text x="127" y="405">实际累计分布</text><svg x="555" y="393" width="44" height="16" viewBox="0 0 44 16" aria-hidden="true"><path d="M1 8H43" stroke="#e16b24" stroke-width="2.5" stroke-dasharray="9 5"/><rect x="19.00" y="5.00" width="6" height="6" fill="white" stroke="#e16b24" stroke-width="1.8"></rect></svg><text x="607" y="405">CDF 采样拟合（5 次复核均值）</text></g></svg>
