<svg xmlns="http://www.w3.org/2000/svg" viewBox="0 0 1050 540" role="img" aria-label="使用该口令的人数 f(r) / 口令排名 r"><path d="M75 325.0H840" stroke="#e5ebf3"/><text x="65" y="329.0" text-anchor="end" font-size="11" fill="#607087">1</text><path d="M75 233.33333333333331H840" stroke="#e5ebf3"/><text x="65" y="237.33333333333331" text-anchor="end" font-size="11" fill="#607087">10</text><path d="M75 141.66666666666666H840" stroke="#e5ebf3"/><text x="65" y="145.66666666666666" text-anchor="end" font-size="11" fill="#607087">100</text><path d="M75 50.0H840" stroke="#e5ebf3"/><text x="65" y="54.0" text-anchor="end" font-size="11" fill="#607087">1,000</text><text class="x-tick" x="75.00" y="345" text-anchor="middle" font-size="11" fill="#607087">1</text><text class="x-tick" x="228.65" y="345" text-anchor="middle" font-size="11" fill="#607087">10</text><text class="x-tick" x="382.29" y="345" text-anchor="middle" font-size="11" fill="#607087">100</text><text class="x-tick" x="535.94" y="345" text-anchor="middle" font-size="11" fill="#607087">1,000</text><text class="x-tick" x="689.59" y="345" text-anchor="middle" font-size="11" fill="#607087">10,000</text><g class="plot-series series-0" data-series="Google 政策不变"><polyline fill="none" stroke="#2563eb" stroke-width="2.5" points="75.00,102.72 121.25,111.57 148.31,121.25 167.50,134.74 182.39,149.57 194.56,151.56 204.85,157.61 213.76,166.94 221.62,166.94 228.65,169.26 235.01,179.15 240.81,182.34 251.10,182.34 255.70,185.80 260.01,185.80 264.05,187.03 267.87,188.29 271.48,188.29 274.90,190.95 278.15,192.34 281.26,195.29 284.22,196.86 289.79,196.86 292.41,198.48 294.92,200.17 299.69,200.17 301.95,201.94 306.26,201.94 308.31,203.80 310.31,203.80 312.24,205.74 314.12,207.78 315.95,209.93 322.80,209.93 324.41,212.21 325.98,212.21 327.51,214.62 329.01,214.62 330.48,217.19 342.40,217.19 343.60,219.94 351.46,219.94 352.51,222.89 361.29,222.89 362.20,226.08 368.23,226.08 369.05,229.54 377.45,229.54 378.16,233.33 389.86,233.33 390.45,237.53 402.81,237.53 403.30,242.22 416.11,242.22 416.51,247.53 429.54,247.53 429.87,253.67 446.82,253.67 447.07,260.93 469.78,260.93 469.95,269.81 495.56,269.81 495.68,281.26 535.94,281.26 536.01,297.41 609.07,297.41 609.09,325.00 838.04,325.00"/></g><g class="plot-series series-1" data-series="实验组调整第 1 轮"><polyline fill="none" stroke="#e16b24" stroke-width="2.5" points="75.00,102.72 121.25,149.57 148.31,151.56 167.50,151.56 182.39,157.02 194.56,157.61 204.85,169.26 213.76,173.46 221.62,188.29 228.65,196.86 235.01,196.86 240.81,198.48 246.15,198.48 251.10,203.80 255.70,205.74 264.05,205.74 267.87,209.93 271.48,212.21 287.06,212.21 289.79,214.62 292.41,214.62 294.92,217.19 299.69,217.19 301.95,219.94 306.26,219.94 308.31,222.89 310.31,222.89 312.24,226.08 319.46,226.08 321.15,229.54 329.01,229.54 330.48,233.33 344.78,233.33 345.94,237.53 373.00,237.53 373.76,242.22 400.31,242.22 400.82,247.53 423.34,247.53 423.70,253.67 449.55,253.67 449.79,260.93 474.80,260.93 474.96,269.81 502.74,269.81 502.85,281.26 543.20,281.26 543.26,297.41 614.07,297.41 614.09,325.00 838.41,325.00"/></g><g class="plot-series series-2" data-series="实验组调整第 2 轮"><polyline fill="none" stroke="#189b80" stroke-width="2.5" stroke-dasharray="9 5" points="75.00,102.72 121.25,149.57 148.31,151.56 167.50,151.56 182.39,157.02 194.56,157.61 204.85,169.26 213.76,173.46 221.62,188.29 228.65,196.86 235.01,196.86 240.81,198.48 246.15,198.48 251.10,203.80 255.70,205.74 264.05,205.74 267.87,209.93 271.48,212.21 287.06,212.21 289.79,214.62 292.41,214.62 294.92,217.19 299.69,217.19 301.95,219.94 306.26,219.94 308.31,222.89 310.31,222.89 312.24,226.08 319.46,226.08 321.15,229.54 330.48,229.54 331.91,233.33 342.40,233.33 343.60,237.53 352.51,237.53 353.55,242.22 364.85,242.22 365.71,247.53 386.81,247.53 387.43,253.67 411.54,253.67 411.97,260.93 438.45,260.93 438.74,269.81 474.80,269.81 474.96,281.26 524.62,281.26 524.70,297.41 614.38,297.41 614.40,325.00 839.06,325.00"/></g><g class="plot-series series-3" data-series="实验组调整第 3 轮"><polyline fill="none" stroke="#a855b5" stroke-width="2.5" stroke-dasharray="3 4" points="75.00,117.83 121.25,149.57 148.31,151.56 167.50,151.56 182.39,157.02 194.56,173.46 204.85,187.03 213.76,188.29 221.62,193.79 228.65,193.79 235.01,195.29 240.81,196.86 246.15,200.17 251.10,201.94 255.70,205.74 264.05,205.74 267.87,209.93 271.48,212.21 281.26,212.21 284.22,214.62 287.06,214.62 289.79,217.19 294.92,217.19 297.35,219.94 306.26,219.94 308.31,222.89 310.31,222.89 312.24,226.08 317.73,226.08 319.46,229.54 327.51,229.54 329.01,233.33 342.40,233.33 343.60,237.53 350.39,237.53 351.46,242.22 362.20,242.22 363.10,247.53 379.57,247.53 380.26,253.67 397.71,253.67 398.24,260.93 425.82,260.93 426.17,269.81 467.95,269.81 468.14,281.26 517.27,281.26 517.36,297.41 609.56,297.41 609.58,325.00 839.48,325.00"/></g><g class="plot-series series-4" data-series="实验组调整第 4 轮"><polyline fill="none" stroke="#cc4255" stroke-width="2.5" stroke-dasharray="11 4 2 4" points="75.00,117.83 121.25,149.57 148.31,151.56 167.50,151.56 182.39,157.02 194.56,173.46 204.85,187.03 213.76,188.29 221.62,193.79 228.65,193.79 235.01,195.29 240.81,196.86 246.15,200.17 251.10,201.94 255.70,205.74 264.05,205.74 267.87,209.93 271.48,212.21 281.26,212.21 284.22,214.62 287.06,214.62 289.79,217.19 294.92,217.19 297.35,219.94 306.26,219.94 308.31,222.89 310.31,222.89 312.24,226.08 317.73,226.08 319.46,229.54 327.51,229.54 329.01,233.33 342.40,233.33 343.60,237.53 350.39,237.53 351.46,242.22 362.20,242.22 363.10,247.53 377.45,247.53 378.16,253.67 395.01,253.67 395.56,260.93 423.70,260.93 424.06,269.81 464.93,269.81 465.12,281.26 514.11,281.26 514.20,297.41 600.31,297.41 600.34,325.00 839.80,325.00"/></g><g class="plot-series series-5" data-series="实验组调整第 5 轮"><polyline fill="none" stroke="#667a15" stroke-width="2.5" stroke-dasharray="5 3" points="75.00,117.83 121.25,149.57 148.31,151.56 167.50,151.56 182.39,157.02 194.56,173.46 204.85,187.03 213.76,188.29 221.62,193.79 228.65,193.79 235.01,195.29 240.81,196.86 246.15,200.17 251.10,201.94 255.70,205.74 260.01,207.78 264.05,209.93 267.87,209.93 271.48,212.21 281.26,212.21 284.22,214.62 287.06,214.62 289.79,217.19 294.92,217.19 297.35,219.94 306.26,219.94 308.31,222.89 310.31,222.89 312.24,226.08 317.73,226.08 319.46,229.54 325.98,229.54 327.51,233.33 342.40,233.33 343.60,237.53 349.31,237.53 350.39,242.22 361.29,242.22 362.20,247.53 375.26,247.53 376.00,253.67 393.90,253.67 394.46,260.93 420.39,260.93 420.77,269.81 462.16,269.81 462.36,281.26 510.69,281.26 510.79,297.41 594.99,297.41 595.02,325.00 839.99,325.00"/></g><g class="plot-series series-6" data-series="实验组调整第 6 轮"><polyline fill="none" stroke="#087d99" stroke-width="2.5" stroke-dasharray="12 4 3 4 3 4" points="75.00,117.83 121.25,149.57 148.31,151.56 167.50,151.56 182.39,157.02 194.56,173.46 204.85,187.03 213.76,188.29 221.62,193.79 228.65,193.79 235.01,195.29 240.81,196.86 246.15,200.17 251.10,201.94 255.70,205.74 260.01,207.78 264.05,209.93 267.87,209.93 271.48,212.21 281.26,212.21 284.22,214.62 287.06,214.62 289.79,217.19 294.92,217.19 297.35,219.94 306.26,219.94 308.31,222.89 310.31,222.89 312.24,226.08 317.73,226.08 319.46,229.54 325.98,229.54 327.51,233.33 342.40,233.33 343.60,237.53 349.31,237.53 350.39,242.22 361.29,242.22 362.20,247.53 375.26,247.53 376.00,253.67 393.34,253.67 393.90,260.93 419.63,260.93 420.02,269.81 462.16,269.81 462.36,281.26 510.60,281.26 510.69,297.41 594.55,297.41 594.58,325.00 840.00,325.00"/></g><g class="plot-series series-7" data-series="实验组调整第 7 轮"><polyline fill="none" stroke="#8d6849" stroke-width="2.5" stroke-dasharray="2 3" points="75.00,117.83 121.25,149.57 148.31,151.56 167.50,151.56 182.39,157.02 194.56,173.46 204.85,187.03 213.76,188.29 221.62,193.79 228.65,193.79 235.01,195.29 240.81,196.86 246.15,200.17 251.10,201.94 255.70,205.74 260.01,207.78 264.05,209.93 267.87,209.93 271.48,212.21 281.26,212.21 284.22,214.62 287.06,214.62 289.79,217.19 294.92,217.19 297.35,219.94 306.26,219.94 308.31,222.89 310.31,222.89 312.24,226.08 317.73,226.08 319.46,229.54 325.98,229.54 327.51,233.33 342.40,233.33 343.60,237.53 349.31,237.53 350.39,242.22 361.29,242.22 362.20,247.53 375.26,247.53 376.00,253.67 393.34,253.67 393.90,260.93 419.63,260.93 420.02,269.81 462.16,269.81 462.36,281.26 510.60,281.26 510.69,297.41 594.55,297.41 594.58,325.00 840.00,325.00"/></g><g class="plot-series series-8" data-series="实验组调整第 8 轮"><polyline fill="none" stroke="#374151" stroke-width="2.5" stroke-dasharray="16 5" points="75.00,117.83 121.25,149.57 148.31,151.56 167.50,151.56 182.39,157.02 194.56,173.46 204.85,187.03 213.76,188.29 221.62,193.79 228.65,193.79 235.01,195.29 240.81,196.86 246.15,200.17 251.10,201.94 255.70,205.74 260.01,207.78 264.05,209.93 267.87,209.93 271.48,212.21 281.26,212.21 284.22,214.62 287.06,214.62 289.79,217.19 294.92,217.19 297.35,219.94 306.26,219.94 308.31,222.89 310.31,222.89 312.24,226.08 317.73,226.08 319.46,229.54 325.98,229.54 327.51,233.33 342.40,233.33 343.60,237.53 349.31,237.53 350.39,242.22 361.29,242.22 362.20,247.53 375.26,247.53 376.00,253.67 393.34,253.67 393.90,260.93 419.63,260.93 420.02,269.81 462.16,269.81 462.36,281.26 510.60,281.26 510.69,297.41 594.58,297.41 594.61,325.00 840.00,325.00"/></g><text x="460" y="375" text-anchor="middle" font-size="13">口令排名 r（对数刻度）</text><text x="75" y="25" font-size="13">使用该口令的人数 f(r)（对数刻度）</text><g aria-label="图例" font-size="12" fill="#20304a"><svg x="75" y="393" width="44" height="16" viewBox="0 0 44 16" aria-hidden="true"><path d="M1 8H43" stroke="#2563eb" stroke-width="2.5"/><circle cx="22.00" cy="8.00" r="3" fill="white" stroke="#2563eb" stroke-width="1.8"></circle></svg><text x="127" y="405">Google 政策不变</text><svg x="555" y="393" width="44" height="16" viewBox="0 0 44 16" aria-hidden="true"><path d="M1 8H43" stroke="#e16b24" stroke-width="2.5"/><circle cx="22.00" cy="8.00" r="3" fill="white" stroke="#e16b24" stroke-width="1.8"></circle></svg><text x="607" y="405">实验组调整第 1 轮</text><svg x="75" y="415" width="44" height="16" viewBox="0 0 44 16" aria-hidden="true"><path d="M1 8H43" stroke="#189b80" stroke-width="2.5" stroke-dasharray="9 5"/><rect x="19.00" y="5.00" width="6" height="6" fill="white" stroke="#189b80" stroke-width="1.8"></rect></svg><text x="127" y="427">实验组调整第 2 轮</text><svg x="555" y="415" width="44" height="16" viewBox="0 0 44 16" aria-hidden="true"><path d="M1 8H43" stroke="#a855b5" stroke-width="2.5" stroke-dasharray="3 4"/><polygon points="22.00,5.00 25.00,11.00 19.00,11.00" fill="white" stroke="#a855b5" stroke-width="1.8"></polygon></svg><text x="607" y="427">实验组调整第 3 轮</text><svg x="75" y="437" width="44" height="16" viewBox="0 0 44 16" aria-hidden="true"><path d="M1 8H43" stroke="#cc4255" stroke-width="2.5" stroke-dasharray="11 4 2 4"/><polygon points="22.00,5.00 25.00,8.00 22.00,11.00 19.00,8.00" fill="white" stroke="#cc4255" stroke-width="1.8"></polygon></svg><text x="127" y="449">实验组调整第 4 轮</text><svg x="555" y="437" width="44" height="16" viewBox="0 0 44 16" aria-hidden="true"><path d="M1 8H43" stroke="#667a15" stroke-width="2.5" stroke-dasharray="5 3"/><circle cx="22.00" cy="8.00" r="3" fill="white" stroke="#667a15" stroke-width="1.8"></circle></svg><text x="607" y="449">实验组调整第 5 轮</text><svg x="75" y="459" width="44" height="16" viewBox="0 0 44 16" aria-hidden="true"><path d="M1 8H43" stroke="#087d99" stroke-width="2.5" stroke-dasharray="12 4 3 4 3 4"/><rect x="19.00" y="5.00" width="6" height="6" fill="white" stroke="#087d99" stroke-width="1.8"></rect></svg><text x="127" y="471">实验组调整第 6 轮</text><svg x="555" y="459" width="44" height="16" viewBox="0 0 44 16" aria-hidden="true"><path d="M1 8H43" stroke="#8d6849" stroke-width="2.5" stroke-dasharray="2 3"/><polygon points="22.00,5.00 25.00,11.00 19.00,11.00" fill="white" stroke="#8d6849" stroke-width="1.8"></polygon></svg><text x="607" y="471">实验组调整第 7 轮</text><svg x="75" y="481" width="44" height="16" viewBox="0 0 44 16" aria-hidden="true"><path d="M1 8H43" stroke="#374151" stroke-width="2.5" stroke-dasharray="16 5"/><polygon points="22.00,5.00 25.00,8.00 22.00,11.00 19.00,8.00" fill="white" stroke="#374151" stroke-width="1.8"></polygon></svg><text x="127" y="493">实验组调整第 8 轮</text></g></svg>
