<svg xmlns="http://www.w3.org/2000/svg" viewBox="0 0 1050 540" role="img" aria-label="使用该口令的人数 f(r) / 口令排名 r"><path d="M75 325.0H840" stroke="#e5ebf3"/><text x="65" y="329.0" text-anchor="end" font-size="11" fill="#607087">1</text><path d="M75 233.33333333333331H840" stroke="#e5ebf3"/><text x="65" y="237.33333333333331" text-anchor="end" font-size="11" fill="#607087">10</text><path d="M75 141.66666666666666H840" stroke="#e5ebf3"/><text x="65" y="145.66666666666666" text-anchor="end" font-size="11" fill="#607087">100</text><path d="M75 50.0H840" stroke="#e5ebf3"/><text x="65" y="54.0" text-anchor="end" font-size="11" fill="#607087">1,000</text><text class="x-tick" x="75.00" y="345" text-anchor="middle" font-size="11" fill="#607087">1</text><text class="x-tick" x="228.30" y="345" text-anchor="middle" font-size="11" fill="#607087">10</text><text class="x-tick" x="381.60" y="345" text-anchor="middle" font-size="11" fill="#607087">100</text><text class="x-tick" x="534.90" y="345" text-anchor="middle" font-size="11" fill="#607087">1,000</text><text class="x-tick" x="688.20" y="345" text-anchor="middle" font-size="11" fill="#607087">10,000</text><g class="plot-series series-0" data-series="Google 政策不变"><polyline fill="none" stroke="#2563eb" stroke-width="2.5" points="75.00,102.72 121.15,111.57 148.14,121.25 167.30,134.74 182.15,149.57 194.29,151.56 204.55,157.61 213.44,166.94 221.29,166.94 228.30,169.26 234.65,179.15 240.44,182.34 250.70,182.34 255.30,185.80 259.59,185.80 263.63,187.03 267.43,188.29 271.03,188.29 274.45,190.95 277.70,192.34 280.79,195.29 283.75,196.86 289.31,196.86 291.92,198.48 294.43,200.17 299.19,200.17 301.44,201.94 305.74,201.94 307.79,203.80 309.78,203.80 311.71,205.74 313.58,207.78 315.41,209.93 322.24,209.93 323.85,212.21 325.41,212.21 326.94,214.62 328.44,214.62 329.90,217.19 341.80,217.19 343.00,219.94 350.84,219.94 351.89,222.89 360.65,222.89 361.56,226.08 367.57,226.08 368.39,229.54 376.77,229.54 377.48,233.33 389.15,233.33 389.74,237.53 402.07,237.53 402.56,242.22 415.34,242.22 415.74,247.53 428.74,247.53 429.07,253.67 445.98,253.67 446.23,260.93 468.89,260.93 469.07,269.81 494.61,269.81 494.74,281.26 534.90,281.26 534.97,297.41 607.87,297.41 607.89,325.00 836.32,325.00"/></g><g class="plot-series series-1" data-series="实验组调整第 1 轮"><polyline fill="none" stroke="#e16b24" stroke-width="2.5" points="75.00,149.57 121.15,151.56 148.14,154.20 167.30,160.06 182.15,181.25 194.29,184.61 204.55,200.17 213.44,207.78 221.29,212.21 228.30,214.62 234.65,217.19 240.44,217.19 245.77,219.94 250.70,219.94 255.30,222.89 291.92,222.89 294.43,226.08 318.91,226.08 320.60,229.54 341.80,229.54 343.00,233.33 364.20,233.33 365.06,237.53 384.21,237.53 384.85,242.22 403.53,242.22 404.00,247.53 420.36,247.53 420.74,253.67 441.53,253.67 441.80,260.93 466.88,260.93 467.07,269.81 494.49,269.81 494.61,281.26 535.70,281.26 535.76,297.41 608.66,297.41 608.69,325.00 837.29,325.00"/></g><g class="plot-series series-2" data-series="实验组调整第 2 轮"><polyline fill="none" stroke="#189b80" stroke-width="2.5" stroke-dasharray="9 5" points="75.00,149.57 121.15,151.56 148.14,154.20 167.30,160.06 182.15,181.25 194.29,184.61 204.55,200.17 213.44,207.78 221.29,212.21 228.30,214.62 234.65,217.19 240.44,217.19 245.77,219.94 250.70,222.89 255.30,226.08 259.59,229.54 263.63,229.54 267.43,233.33 277.70,233.33 280.79,237.53 289.31,237.53 291.92,242.22 303.63,242.22 305.74,247.53 313.58,247.53 315.41,253.67 332.74,253.67 334.11,260.93 369.99,260.93 370.78,269.81 453.85,269.81 454.08,281.26 521.61,281.26 521.69,297.41 607.78,297.41 607.80,325.00 838.29,325.00"/></g><g class="plot-series series-3" data-series="实验组调整第 3 轮"><polyline fill="none" stroke="#a855b5" stroke-width="2.5" stroke-dasharray="3 4" points="75.00,149.57 121.15,151.56 148.14,154.20 167.30,160.06 182.15,181.25 194.29,184.61 204.55,200.17 213.44,207.78 221.29,212.21 228.30,214.62 234.65,217.19 240.44,217.19 245.77,219.94 250.70,222.89 255.30,226.08 259.59,229.54 263.63,229.54 267.43,233.33 277.70,233.33 280.79,237.53 289.31,237.53 291.92,242.22 305.74,242.22 307.79,247.53 315.41,247.53 317.18,253.67 332.74,253.67 334.11,260.93 369.99,260.93 370.78,269.81 417.71,269.81 418.09,281.26 481.00,281.26 481.15,297.41 588.09,297.41 588.12,325.00 839.17,325.00"/></g><g class="plot-series series-4" data-series="实验组调整第 4 轮"><polyline fill="none" stroke="#cc4255" stroke-width="2.5" stroke-dasharray="11 4 2 4" points="75.00,149.57 121.15,151.56 148.14,154.20 167.30,160.06 182.15,181.25 194.29,184.61 204.55,200.17 213.44,207.78 221.29,212.21 228.30,214.62 234.65,217.19 240.44,217.19 245.77,219.94 250.70,222.89 255.30,226.08 259.59,229.54 263.63,229.54 267.43,233.33 277.70,233.33 280.79,237.53 289.31,237.53 291.92,242.22 305.74,242.22 307.79,247.53 315.41,247.53 317.18,253.67 332.74,253.67 334.11,260.93 369.20,260.93 369.99,269.81 412.06,269.81 412.48,281.26 472.38,281.26 472.55,297.41 576.83,297.41 576.86,325.00 839.45,325.00"/></g><g class="plot-series series-5" data-series="实验组调整第 5 轮"><polyline fill="none" stroke="#667a15" stroke-width="2.5" stroke-dasharray="5 3" points="75.00,149.57 121.15,151.56 148.14,154.20 167.30,160.06 182.15,181.25 194.29,184.61 204.55,200.17 213.44,207.78 221.29,212.21 228.30,214.62 234.65,217.19 240.44,217.19 245.77,219.94 250.70,222.89 255.30,226.08 259.59,229.54 263.63,229.54 267.43,233.33 277.70,233.33 280.79,237.53 289.31,237.53 291.92,242.22 305.74,242.22 307.79,247.53 315.41,247.53 317.18,253.67 332.74,253.67 334.11,260.93 369.20,260.93 369.99,269.81 412.48,269.81 412.89,281.26 473.06,281.26 473.23,297.41 570.78,297.41 570.82,325.00 839.56,325.00"/></g><g class="plot-series series-6" data-series="实验组调整第 6 轮"><polyline fill="none" stroke="#087d99" stroke-width="2.5" stroke-dasharray="12 4 3 4 3 4" points="75.00,149.57 121.15,151.56 148.14,154.20 167.30,160.06 182.15,181.25 194.29,184.61 204.55,200.17 213.44,207.78 221.29,212.21 228.30,214.62 234.65,217.19 240.44,217.19 245.77,219.94 250.70,222.89 255.30,226.08 259.59,229.54 263.63,229.54 267.43,233.33 277.70,233.33 280.79,237.53 291.92,237.53 294.43,242.22 305.74,242.22 307.79,247.53 315.41,247.53 317.18,253.67 332.74,253.67 334.11,260.93 369.20,260.93 369.99,269.81 412.48,269.81 412.89,281.26 473.56,281.26 473.73,297.41 572.27,297.41 572.31,325.00 839.53,325.00"/></g><g class="plot-series series-7" data-series="实验组调整第 7 轮"><polyline fill="none" stroke="#8d6849" stroke-width="2.5" stroke-dasharray="2 3" points="75.00,149.57 121.15,151.56 148.14,154.20 167.30,160.06 182.15,181.25 194.29,184.61 204.55,200.17 213.44,207.78 221.29,212.21 228.30,214.62 234.65,217.19 240.44,217.19 245.77,219.94 250.70,222.89 255.30,226.08 259.59,229.54 263.63,229.54 267.43,233.33 277.70,233.33 280.79,237.53 291.92,237.53 294.43,242.22 305.74,242.22 307.79,247.53 315.41,247.53 317.18,253.67 332.74,253.67 334.11,260.93 369.20,260.93 369.99,269.81 412.48,269.81 412.89,281.26 474.89,281.26 475.05,297.41 573.81,297.41 573.85,325.00 839.50,325.00"/></g><g class="plot-series series-8" data-series="实验组调整第 8 轮"><polyline fill="none" stroke="#374151" stroke-width="2.5" stroke-dasharray="16 5" points="75.00,151.56 121.15,154.20 148.14,159.43 167.30,160.06 182.15,181.25 194.29,184.61 204.55,200.17 213.44,207.78 221.29,212.21 228.30,214.62 234.65,217.19 240.44,217.19 245.77,219.94 250.70,222.89 255.30,226.08 259.59,229.54 263.63,229.54 267.43,233.33 277.70,233.33 280.79,237.53 291.92,237.53 294.43,242.22 305.74,242.22 307.79,247.53 315.41,247.53 317.18,253.67 332.74,253.67 334.11,260.93 369.20,260.93 369.99,269.81 409.92,269.81 410.35,281.26 471.35,281.26 471.53,297.41 570.50,297.41 570.54,325.00 839.59,325.00"/></g><g class="plot-series series-9" data-series="实验组调整第 9 轮"><polyline fill="none" stroke="#db2777" stroke-width="2.5" points="75.00,154.20 121.15,160.06 148.14,181.25 167.30,184.61 182.15,200.17 194.29,200.17 204.55,205.74 213.44,207.78 221.29,214.62 228.30,217.19 234.65,217.19 240.44,219.94 245.77,222.89 250.70,226.08 255.30,229.54 259.59,229.54 263.63,233.33 271.03,233.33 274.45,237.53 283.75,237.53 286.59,242.22 296.85,242.22 299.19,247.53 303.63,247.53 305.74,253.67 318.91,253.67 320.60,260.93 339.33,260.93 340.58,269.81 392.05,269.81 392.62,281.26 458.83,281.26 459.04,297.41 555.72,297.41 555.77,325.00 840.00,325.00"/></g><text x="460" y="375" text-anchor="middle" font-size="13">口令排名 r（对数刻度）</text><text x="75" y="25" font-size="13">使用该口令的人数 f(r)（对数刻度）</text><g aria-label="图例" font-size="12" fill="#20304a"><svg x="75" y="393" width="44" height="16" viewBox="0 0 44 16" aria-hidden="true"><path d="M1 8H43" stroke="#2563eb" stroke-width="2.5"/><circle cx="22.00" cy="8.00" r="3" fill="white" stroke="#2563eb" stroke-width="1.8"></circle></svg><text x="127" y="405">Google 政策不变</text><svg x="555" y="393" width="44" height="16" viewBox="0 0 44 16" aria-hidden="true"><path d="M1 8H43" stroke="#e16b24" stroke-width="2.5"/><circle cx="22.00" cy="8.00" r="3" fill="white" stroke="#e16b24" stroke-width="1.8"></circle></svg><text x="607" y="405">实验组调整第 1 轮</text><svg x="75" y="415" width="44" height="16" viewBox="0 0 44 16" aria-hidden="true"><path d="M1 8H43" stroke="#189b80" stroke-width="2.5" stroke-dasharray="9 5"/><rect x="19.00" y="5.00" width="6" height="6" fill="white" stroke="#189b80" stroke-width="1.8"></rect></svg><text x="127" y="427">实验组调整第 2 轮</text><svg x="555" y="415" width="44" height="16" viewBox="0 0 44 16" aria-hidden="true"><path d="M1 8H43" stroke="#a855b5" stroke-width="2.5" stroke-dasharray="3 4"/><polygon points="22.00,5.00 25.00,11.00 19.00,11.00" fill="white" stroke="#a855b5" stroke-width="1.8"></polygon></svg><text x="607" y="427">实验组调整第 3 轮</text><svg x="75" y="437" width="44" height="16" viewBox="0 0 44 16" aria-hidden="true"><path d="M1 8H43" stroke="#cc4255" stroke-width="2.5" stroke-dasharray="11 4 2 4"/><polygon points="22.00,5.00 25.00,8.00 22.00,11.00 19.00,8.00" fill="white" stroke="#cc4255" stroke-width="1.8"></polygon></svg><text x="127" y="449">实验组调整第 4 轮</text><svg x="555" y="437" width="44" height="16" viewBox="0 0 44 16" aria-hidden="true"><path d="M1 8H43" stroke="#667a15" stroke-width="2.5" stroke-dasharray="5 3"/><circle cx="22.00" cy="8.00" r="3" fill="white" stroke="#667a15" stroke-width="1.8"></circle></svg><text x="607" y="449">实验组调整第 5 轮</text><svg x="75" y="459" width="44" height="16" viewBox="0 0 44 16" aria-hidden="true"><path d="M1 8H43" stroke="#087d99" stroke-width="2.5" stroke-dasharray="12 4 3 4 3 4"/><rect x="19.00" y="5.00" width="6" height="6" fill="white" stroke="#087d99" stroke-width="1.8"></rect></svg><text x="127" y="471">实验组调整第 6 轮</text><svg x="555" y="459" width="44" height="16" viewBox="0 0 44 16" aria-hidden="true"><path d="M1 8H43" stroke="#8d6849" stroke-width="2.5" stroke-dasharray="2 3"/><polygon points="22.00,5.00 25.00,11.00 19.00,11.00" fill="white" stroke="#8d6849" stroke-width="1.8"></polygon></svg><text x="607" y="471">实验组调整第 7 轮</text><svg x="75" y="481" width="44" height="16" viewBox="0 0 44 16" aria-hidden="true"><path d="M1 8H43" stroke="#374151" stroke-width="2.5" stroke-dasharray="16 5"/><polygon points="22.00,5.00 25.00,8.00 22.00,11.00 19.00,8.00" fill="white" stroke="#374151" stroke-width="1.8"></polygon></svg><text x="127" y="493">实验组调整第 8 轮</text><svg x="555" y="481" width="44" height="16" viewBox="0 0 44 16" aria-hidden="true"><path d="M1 8H43" stroke="#db2777" stroke-width="2.5"/><circle cx="22.00" cy="8.00" r="3" fill="white" stroke="#db2777" stroke-width="1.8"></circle></svg><text x="607" y="493">实验组调整第 9 轮</text></g></svg>
