<svg xmlns="http://www.w3.org/2000/svg" viewBox="0 0 1050 562" role="img" aria-label="使用该口令的人数 f(r) / 口令排名 r"><path d="M75 325.0H840" stroke="#e5ebf3"/><text x="65" y="329.0" text-anchor="end" font-size="11" fill="#607087">1</text><path d="M75 233.33333333333331H840" stroke="#e5ebf3"/><text x="65" y="237.33333333333331" text-anchor="end" font-size="11" fill="#607087">10</text><path d="M75 141.66666666666666H840" stroke="#e5ebf3"/><text x="65" y="145.66666666666666" text-anchor="end" font-size="11" fill="#607087">100</text><path d="M75 50.0H840" stroke="#e5ebf3"/><text x="65" y="54.0" text-anchor="end" font-size="11" fill="#607087">1,000</text><text class="x-tick" x="75.00" y="345" text-anchor="middle" font-size="11" fill="#607087">1</text><text class="x-tick" x="228.67" y="345" text-anchor="middle" font-size="11" fill="#607087">10</text><text class="x-tick" x="382.34" y="345" text-anchor="middle" font-size="11" fill="#607087">100</text><text class="x-tick" x="536.01" y="345" text-anchor="middle" font-size="11" fill="#607087">1,000</text><text class="x-tick" x="689.68" y="345" text-anchor="middle" font-size="11" fill="#607087">10,000</text><g class="plot-series series-0" data-series="Google 政策不变"><polyline fill="none" stroke="#2563eb" stroke-width="2.5" points="75.00,102.87 121.26,111.19 148.32,116.54 167.52,135.42 182.41,150.06 194.58,157.02 204.87,160.06 213.78,169.26 221.64,178.14 228.67,180.19 235.03,182.34 240.84,185.80 251.13,185.80 255.73,188.29 260.04,188.29 264.08,189.60 267.90,190.95 271.51,190.95 274.93,192.34 278.19,192.34 281.29,193.79 284.26,193.79 287.10,196.86 294.96,196.86 297.39,198.48 299.73,200.17 304.18,200.17 306.30,201.94 308.35,201.94 310.34,203.80 314.16,203.80 315.99,207.78 322.84,207.78 324.45,209.93 329.05,209.93 330.52,212.21 336.08,212.21 337.40,214.62 339.97,214.62 341.22,217.19 345.99,217.19 347.13,219.94 353.59,219.94 354.61,222.89 357.58,222.89 358.54,226.08 365.76,226.08 366.61,229.54 373.05,229.54 373.81,233.33 385.60,233.33 386.23,237.53 392.25,237.53 392.82,242.22 408.05,242.22 408.51,247.53 423.76,247.53 424.11,253.67 439.65,253.67 439.93,260.93 462.02,260.93 462.22,269.81 493.14,269.81 493.26,281.26 535.34,281.26 535.41,297.41 609.49,297.41 609.51,325.00 838.28,325.00"/></g><g class="plot-series series-1" data-series="实验组调整第 1 轮"><polyline fill="none" stroke="#e16b24" stroke-width="2.5" stroke-dasharray="9 5" points="75.00,102.57 121.26,111.19 148.32,116.54 167.52,135.42 182.41,150.06 194.58,157.02 204.87,160.06 213.78,169.26 221.64,178.14 228.67,180.19 235.03,182.34 240.84,185.80 251.13,185.80 255.73,188.29 260.04,188.29 264.08,189.60 267.90,190.95 271.51,190.95 274.93,192.34 278.19,193.79 281.29,193.79 284.26,196.86 287.10,196.86 289.82,201.94 292.44,201.94 294.96,203.80 297.39,203.80 299.73,209.93 301.99,212.21 306.30,212.21 308.35,214.62 310.34,214.62 312.28,217.19 315.99,217.19 317.77,219.94 319.50,222.89 321.19,222.89 322.84,226.08 331.95,226.08 333.36,229.54 334.73,229.54 336.08,233.33 352.56,233.33 353.59,237.53 359.48,237.53 360.42,242.22 373.81,242.22 374.56,247.53 392.25,247.53 392.82,253.67 409.84,253.67 410.28,260.93 437.93,260.93 438.22,269.81 471.96,269.81 472.14,281.26 521.87,281.26 521.95,297.41 605.25,297.41 605.27,325.00 839.10,325.00"/></g><g class="plot-series series-2" data-series="实验组调整第 2 轮"><polyline fill="none" stroke="#189b80" stroke-width="2.5" stroke-dasharray="3 4" points="75.00,102.57 121.26,111.19 148.32,116.54 167.52,135.42 182.41,150.06 194.58,157.02 204.87,160.06 213.78,169.26 221.64,178.14 228.67,180.19 235.03,182.34 240.84,185.80 251.13,185.80 255.73,188.29 260.04,188.29 264.08,189.60 267.90,190.95 271.51,190.95 274.93,192.34 278.19,196.86 281.29,196.86 284.26,201.94 287.10,203.80 289.82,217.19 292.44,217.19 294.96,219.94 297.39,222.89 299.73,226.08 308.35,226.08 310.34,229.54 312.28,229.54 314.16,233.33 327.55,233.33 329.05,237.53 336.08,237.53 337.40,242.22 353.59,242.22 354.61,247.53 376.05,247.53 376.78,253.67 396.70,253.67 397.23,260.93 424.47,260.93 424.82,269.81 460.59,269.81 460.80,281.26 514.09,281.26 514.18,297.41 602.52,297.41 602.55,325.00 839.48,325.00"/></g><g class="plot-series series-3" data-series="实验组调整第 3 轮"><polyline fill="none" stroke="#a855b5" stroke-width="2.5" stroke-dasharray="11 4 2 4" points="75.00,102.57 121.26,111.19 148.32,116.54 167.52,135.42 182.41,150.06 194.58,157.02 204.87,160.06 213.78,169.26 221.64,178.14 228.67,180.19 235.03,182.34 240.84,185.80 251.13,185.80 255.73,188.29 260.04,188.29 264.08,189.60 267.90,190.95 274.93,190.95 278.19,196.86 281.29,196.86 284.26,201.94 287.10,203.80 289.82,217.19 292.44,217.19 294.96,219.94 297.39,222.89 299.73,226.08 301.99,226.08 304.18,229.54 306.30,229.54 308.35,233.33 322.84,233.33 324.45,237.53 330.52,237.53 331.95,242.22 345.99,242.22 347.13,247.53 369.10,247.53 369.91,253.67 391.09,253.67 391.67,260.93 418.92,260.93 419.31,269.81 452.47,269.81 452.70,281.26 508.78,281.26 508.88,297.41 600.44,297.41 600.47,325.00 839.64,325.00"/></g><g class="plot-series series-4" data-series="实验组调整第 4 轮"><polyline fill="none" stroke="#cc4255" stroke-width="2.5" stroke-dasharray="5 3" points="75.00,102.57 121.26,111.19 148.32,116.54 167.52,135.42 182.41,150.06 194.58,157.02 204.87,160.06 213.78,169.26 221.64,178.14 228.67,180.19 235.03,182.34 240.84,185.80 251.13,185.80 255.73,188.29 260.04,188.29 264.08,189.60 267.90,190.95 274.93,190.95 278.19,196.86 281.29,196.86 284.26,201.94 287.10,203.80 289.82,214.62 292.44,217.19 294.96,217.19 297.39,222.89 299.73,226.08 301.99,226.08 304.18,229.54 306.30,229.54 308.35,233.33 322.84,233.33 324.45,237.53 330.52,237.53 331.95,242.22 344.83,242.22 345.99,247.53 368.28,247.53 369.10,253.67 389.90,253.67 390.50,260.93 418.15,260.93 418.53,269.81 451.53,269.81 451.77,281.26 507.57,281.26 507.67,297.41 600.14,297.41 600.16,325.00 839.66,325.00"/></g><g class="plot-series series-5" data-series="实验组调整第 5 轮"><polyline fill="none" stroke="#667a15" stroke-width="2.5" stroke-dasharray="12 4 3 4 3 4" points="75.00,102.57 121.26,111.19 148.32,116.54 167.52,135.42 182.41,150.06 194.58,157.02 204.87,160.06 213.78,169.26 221.64,178.14 228.67,180.19 235.03,182.34 240.84,185.80 251.13,185.80 255.73,188.29 260.04,188.29 264.08,189.60 267.90,190.95 274.93,190.95 278.19,196.86 281.29,196.86 284.26,201.94 287.10,203.80 289.82,214.62 292.44,217.19 294.96,217.19 297.39,222.89 299.73,226.08 301.99,226.08 304.18,229.54 308.35,229.54 310.34,233.33 322.84,233.33 324.45,237.53 330.52,237.53 331.95,242.22 344.83,242.22 345.99,247.53 368.28,247.53 369.10,253.67 390.50,253.67 391.09,260.93 418.15,260.93 418.53,269.81 451.53,269.81 451.77,281.26 508.08,281.26 508.18,297.41 600.47,297.41 600.50,325.00 839.65,325.00"/></g><g class="plot-series series-6" data-series="实验组调整第 6 轮"><polyline fill="none" stroke="#087d99" stroke-width="2.5" stroke-dasharray="2 3" points="75.00,102.57 121.26,111.19 148.32,116.54 167.52,135.42 182.41,150.06 194.58,157.02 204.87,160.06 213.78,169.26 221.64,178.14 228.67,180.19 235.03,182.34 240.84,185.80 251.13,185.80 255.73,188.29 260.04,188.29 264.08,189.60 267.90,190.95 274.93,190.95 278.19,196.86 281.29,196.86 284.26,201.94 287.10,214.62 289.82,222.89 292.44,226.08 294.96,226.08 297.39,229.54 301.99,229.54 304.18,233.33 314.16,233.33 315.99,237.53 322.84,237.53 324.45,242.22 338.70,242.22 339.97,247.53 363.14,247.53 364.03,253.67 386.23,253.67 386.86,260.93 415.36,260.93 415.76,269.81 449.85,269.81 450.10,281.26 505.49,281.26 505.60,297.41 599.32,297.41 599.34,325.00 839.74,325.00"/></g><g class="plot-series series-7" data-series="实验组调整第 7 轮"><polyline fill="none" stroke="#8d6849" stroke-width="2.5" stroke-dasharray="16 5" points="75.00,102.57 121.26,111.19 148.32,116.54 167.52,135.42 182.41,150.06 194.58,157.02 204.87,160.06 213.78,169.26 221.64,178.14 228.67,180.19 235.03,182.34 240.84,185.80 251.13,185.80 255.73,188.29 260.04,188.29 264.08,189.60 267.90,190.95 274.93,190.95 278.19,196.86 281.29,196.86 284.26,201.94 287.10,222.89 289.82,226.08 292.44,229.54 294.96,229.54 297.39,233.33 304.18,233.33 306.30,237.53 312.28,237.53 314.16,242.22 327.55,242.22 329.05,247.53 350.44,247.53 351.51,253.67 375.31,253.67 376.05,260.93 407.60,260.93 408.05,269.81 443.49,269.81 443.76,281.26 501.36,281.26 501.47,297.41 597.96,297.41 597.99,325.00 839.88,325.00"/></g><g class="plot-series series-8" data-series="实验组调整第 8 轮"><polyline fill="none" stroke="#374151" stroke-width="2.5" stroke-dasharray="28 4 2 4" points="75.00,111.19 121.26,116.54 148.32,135.42 167.52,150.06 182.41,157.02 194.58,157.61 204.87,160.06 213.78,169.26 221.64,178.14 228.67,180.19 235.03,182.34 240.84,185.80 251.13,185.80 255.73,188.29 260.04,188.29 264.08,189.60 267.90,190.95 274.93,190.95 278.19,196.86 281.29,196.86 284.26,201.94 287.10,212.21 289.82,222.89 294.96,222.89 297.39,226.08 299.73,229.54 301.99,229.54 304.18,233.33 310.34,233.33 312.28,237.53 319.50,237.53 321.19,242.22 333.36,242.22 334.73,247.53 354.61,247.53 355.61,253.67 378.21,253.67 378.92,260.93 409.40,260.93 409.84,269.81 444.55,269.81 444.81,281.26 501.92,281.26 502.03,297.41 598.09,297.41 598.12,325.00 839.98,325.00"/></g><g class="plot-series series-9" data-series="实验组调整第 9 轮"><polyline fill="none" stroke="#db2777" stroke-width="2.5" stroke-dasharray="30 4 2 4" points="75.00,111.19 121.26,116.54 148.32,135.42 167.52,150.06 182.41,157.02 194.58,157.61 204.87,160.06 213.78,169.26 221.64,178.14 228.67,180.19 235.03,182.34 240.84,185.80 251.13,185.80 255.73,188.29 260.04,188.29 264.08,189.60 267.90,190.95 274.93,190.95 278.19,196.86 281.29,196.86 284.26,201.94 287.10,212.21 289.82,222.89 294.96,222.89 297.39,226.08 299.73,229.54 301.99,229.54 304.18,233.33 310.34,233.33 312.28,237.53 319.50,237.53 321.19,242.22 333.36,242.22 334.73,247.53 354.61,247.53 355.61,253.67 378.21,253.67 378.92,260.93 409.40,260.93 409.84,269.81 444.55,269.81 444.81,281.26 502.14,281.26 502.25,297.41 597.80,297.41 597.83,325.00 839.99,325.00"/></g><g class="plot-series series-10" data-series="实验组调整第 10 轮"><polyline fill="none" stroke="#ca8a04" stroke-width="2.5" stroke-dasharray="32 4 2 4" points="75.00,111.19 121.26,116.54 148.32,135.42 167.52,150.06 182.41,157.02 194.58,157.61 204.87,160.06 213.78,169.26 221.64,177.16 228.67,180.19 235.03,182.34 240.84,185.80 251.13,185.80 255.73,188.29 260.04,188.29 264.08,189.60 267.90,190.95 274.93,190.95 278.19,196.86 281.29,196.86 284.26,201.94 287.10,212.21 289.82,222.89 294.96,222.89 297.39,226.08 299.73,229.54 301.99,229.54 304.18,233.33 308.35,233.33 310.34,237.53 317.77,237.53 319.50,242.22 330.52,242.22 331.95,247.53 354.61,247.53 355.61,253.67 377.50,253.67 378.21,260.93 408.95,260.93 409.40,269.81 442.69,269.81 442.96,281.26 501.47,281.26 501.59,297.41 597.88,297.41 597.91,325.00 840.00,325.00"/></g><text x="460" y="375" text-anchor="middle" font-size="13">口令排名 r（对数刻度）</text><text x="75" y="25" font-size="13">使用该口令的人数 f(r)（对数刻度）</text><g aria-label="图例" font-size="12" fill="#20304a"><svg x="75" y="393" width="44" height="16" viewBox="0 0 44 16" aria-hidden="true"><path d="M1 8H43" stroke="#2563eb" stroke-width="2.5"/><circle cx="22.00" cy="8.00" r="3" fill="white" stroke="#2563eb" stroke-width="1.8"></circle></svg><text x="127" y="405">Google 政策不变</text><svg x="555" y="393" width="44" height="16" viewBox="0 0 44 16" aria-hidden="true"><path d="M1 8H43" stroke="#e16b24" stroke-width="2.5" stroke-dasharray="9 5"/><rect x="19.00" y="5.00" width="6" height="6" fill="white" stroke="#e16b24" stroke-width="1.8"></rect></svg><text x="607" y="405">实验组调整第 1 轮</text><svg x="75" y="415" width="44" height="16" viewBox="0 0 44 16" aria-hidden="true"><path d="M1 8H43" stroke="#189b80" stroke-width="2.5" stroke-dasharray="3 4"/><polygon points="22.00,5.00 25.00,11.00 19.00,11.00" fill="white" stroke="#189b80" stroke-width="1.8"></polygon></svg><text x="127" y="427">实验组调整第 2 轮</text><svg x="555" y="415" width="44" height="16" viewBox="0 0 44 16" aria-hidden="true"><path d="M1 8H43" stroke="#a855b5" stroke-width="2.5" stroke-dasharray="11 4 2 4"/><polygon points="22.00,5.00 25.00,8.00 22.00,11.00 19.00,8.00" fill="white" stroke="#a855b5" stroke-width="1.8"></polygon></svg><text x="607" y="427">实验组调整第 3 轮</text><svg x="75" y="437" width="44" height="16" viewBox="0 0 44 16" aria-hidden="true"><path d="M1 8H43" stroke="#cc4255" stroke-width="2.5" stroke-dasharray="5 3"/><circle cx="22.00" cy="8.00" r="3" fill="white" stroke="#cc4255" stroke-width="1.8"></circle></svg><text x="127" y="449">实验组调整第 4 轮</text><svg x="555" y="437" width="44" height="16" viewBox="0 0 44 16" aria-hidden="true"><path d="M1 8H43" stroke="#667a15" stroke-width="2.5" stroke-dasharray="12 4 3 4 3 4"/><rect x="19.00" y="5.00" width="6" height="6" fill="white" stroke="#667a15" stroke-width="1.8"></rect></svg><text x="607" y="449">实验组调整第 5 轮</text><svg x="75" y="459" width="44" height="16" viewBox="0 0 44 16" aria-hidden="true"><path d="M1 8H43" stroke="#087d99" stroke-width="2.5" stroke-dasharray="2 3"/><polygon points="22.00,5.00 25.00,11.00 19.00,11.00" fill="white" stroke="#087d99" stroke-width="1.8"></polygon></svg><text x="127" y="471">实验组调整第 6 轮</text><svg x="555" y="459" width="44" height="16" viewBox="0 0 44 16" aria-hidden="true"><path d="M1 8H43" stroke="#8d6849" stroke-width="2.5" stroke-dasharray="16 5"/><polygon points="22.00,5.00 25.00,8.00 22.00,11.00 19.00,8.00" fill="white" stroke="#8d6849" stroke-width="1.8"></polygon></svg><text x="607" y="471">实验组调整第 7 轮</text><svg x="75" y="481" width="44" height="16" viewBox="0 0 44 16" aria-hidden="true"><path d="M1 8H43" stroke="#374151" stroke-width="2.5" stroke-dasharray="28 4 2 4"/><circle cx="22.00" cy="8.00" r="3" fill="white" stroke="#374151" stroke-width="1.8"></circle></svg><text x="127" y="493">实验组调整第 8 轮</text><svg x="555" y="481" width="44" height="16" viewBox="0 0 44 16" aria-hidden="true"><path d="M1 8H43" stroke="#db2777" stroke-width="2.5" stroke-dasharray="30 4 2 4"/><rect x="19.00" y="5.00" width="6" height="6" fill="white" stroke="#db2777" stroke-width="1.8"></rect></svg><text x="607" y="493">实验组调整第 9 轮</text><svg x="75" y="503" width="44" height="16" viewBox="0 0 44 16" aria-hidden="true"><path d="M1 8H43" stroke="#ca8a04" stroke-width="2.5" stroke-dasharray="32 4 2 4"/><polygon points="22.00,5.00 25.00,11.00 19.00,11.00" fill="white" stroke="#ca8a04" stroke-width="1.8"></polygon></svg><text x="127" y="515">实验组调整第 10 轮</text></g></svg>
