<svg xmlns="http://www.w3.org/2000/svg" viewBox="0 0 900 610" role="img" aria-label="共同 Google 起点及逐轮 CDF 采样拟合参数 c 和 s"><style>text{font-family:system-ui,sans-serif;fill:#20304a}.tick{font-size:11px;fill:#607087}.caption{font-size:13px}</style><text x="95" y="43" class="caption">参数 c（实线）</text><path d="M95 215.00H840" stroke="#e5ebf3"/><text x="86" y="219.00" text-anchor="end" class="tick">0.003796</text><path d="M95 177.50H840" stroke="#e5ebf3"/><text x="86" y="181.50" text-anchor="end" class="tick">0.004295</text><path d="M95 140.00H840" stroke="#e5ebf3"/><text x="86" y="144.00" text-anchor="end" class="tick">0.004794</text><path d="M95 102.50H840" stroke="#e5ebf3"/><text x="86" y="106.50" text-anchor="end" class="tick">0.005293</text><path d="M95 65.00H840" stroke="#e5ebf3"/><text x="86" y="69.00" text-anchor="end" class="tick">0.005793</text><g class="parameter-c"><path d="M95.00 81.41L169.50 139.31" fill="none" stroke="#e16b24" stroke-width="2.7"/><path d="M169.50 139.31L244.00 139.60" fill="none" stroke="#189b80" stroke-width="2.7"/><path d="M244.00 139.60L318.50 136.66" fill="none" stroke="#a855b5" stroke-width="2.7"/><path d="M318.50 136.66L393.00 133.94" fill="none" stroke="#cc4255" stroke-width="2.7"/><path d="M393.00 133.94L467.50 133.69" fill="none" stroke="#667a15" stroke-width="2.7"/><path d="M467.50 133.69L542.00 130.40" fill="none" stroke="#087d99" stroke-width="2.7"/><path d="M542.00 130.40L616.50 128.24" fill="none" stroke="#8d6849" stroke-width="2.7"/><path d="M616.50 128.24L691.00 198.59" fill="none" stroke="#374151" stroke-width="2.7"/><path d="M691.00 198.59L765.50 198.50" fill="none" stroke="#db2777" stroke-width="2.7"/><path d="M765.50 198.50L840.00 197.48" fill="none" stroke="#ca8a04" stroke-width="2.7"/><circle cx="95.00" cy="81.41" r="5" fill="#2563eb" stroke="white" stroke-width="1.5"><title>第 0 轮；c=0.0055742366；平均最大 CDF 误差=0.3490%</title></circle><circle cx="169.50" cy="139.31" r="5" fill="#e16b24" stroke="white" stroke-width="1.5"><title>第 1 轮；c=0.0048033211；平均最大 CDF 误差=0.2214%</title></circle><circle cx="244.00" cy="139.60" r="5" fill="#189b80" stroke="white" stroke-width="1.5"><title>第 2 轮；c=0.0047994196；平均最大 CDF 误差=0.2280%</title></circle><circle cx="318.50" cy="136.66" r="5" fill="#a855b5" stroke="white" stroke-width="1.5"><title>第 3 轮；c=0.0048386692；平均最大 CDF 误差=0.2402%</title></circle><circle cx="393.00" cy="133.94" r="5" fill="#cc4255" stroke="white" stroke-width="1.5"><title>第 4 轮；c=0.0048748088；平均最大 CDF 误差=0.2414%</title></circle><circle cx="467.50" cy="133.69" r="5" fill="#667a15" stroke="white" stroke-width="1.5"><title>第 5 轮；c=0.0048781493；平均最大 CDF 误差=0.2396%</title></circle><circle cx="542.00" cy="130.40" r="5" fill="#087d99" stroke="white" stroke-width="1.5"><title>第 6 轮；c=0.0049219693；平均最大 CDF 误差=0.2468%</title></circle><circle cx="616.50" cy="128.24" r="5" fill="#8d6849" stroke="white" stroke-width="1.5"><title>第 7 轮；c=0.0049506938；平均最大 CDF 误差=0.2618%</title></circle><circle cx="691.00" cy="198.59" r="5" fill="#374151" stroke="white" stroke-width="1.5"><title>第 8 轮；c=0.0040140744；平均最大 CDF 误差=0.2202%</title></circle><circle cx="765.50" cy="198.50" r="5" fill="#db2777" stroke="white" stroke-width="1.5"><title>第 9 轮；c=0.0040152787；平均最大 CDF 误差=0.2058%</title></circle><circle cx="840.00" cy="197.48" r="5" fill="#ca8a04" stroke="white" stroke-width="1.5"><title>第 10 轮；c=0.0040289044；平均最大 CDF 误差=0.2238%</title></circle></g><text x="95" y="248" class="caption">参数 s（虚线）</text><path d="M95 420.00H840" stroke="#e5ebf3"/><text x="86" y="424.00" text-anchor="end" class="tick">0.301125</text><path d="M95 382.50H840" stroke="#e5ebf3"/><text x="86" y="386.50" text-anchor="end" class="tick">0.308563</text><path d="M95 345.00H840" stroke="#e5ebf3"/><text x="86" y="349.00" text-anchor="end" class="tick">0.316001</text><path d="M95 307.50H840" stroke="#e5ebf3"/><text x="86" y="311.50" text-anchor="end" class="tick">0.323439</text><path d="M95 270.00H840" stroke="#e5ebf3"/><text x="86" y="274.00" text-anchor="end" class="tick">0.330877</text><g class="parameter-s"><path d="M95.00 311.21L102.84 309.63 M108.72 308.44L116.56 306.85 M122.44 305.66L130.29 304.08 M136.17 302.89L144.01 301.31 M149.89 300.12L157.73 298.53 M163.61 297.34L169.50 296.15" fill="none" stroke="#e16b24" stroke-width="2.7" stroke-dasharray="8 5"/><path d="M169.50 296.15L176.95 299.06 M182.54 301.24L189.99 304.15 M195.58 306.33L203.04 309.24 M208.63 311.42L216.08 314.33 M221.67 316.51L229.12 319.42 M234.71 321.60L242.16 324.51" fill="none" stroke="#189b80" stroke-width="2.7" stroke-dasharray="8 5"/><path d="M244.00 325.23L251.63 327.62 M257.36 329.42L264.99 331.81 M270.72 333.61L278.35 336.00 M284.07 337.80L291.71 340.19 M297.43 341.99L305.07 344.38 M310.79 346.18L318.42 348.57" fill="none" stroke="#a855b5" stroke-width="2.7" stroke-dasharray="8 5"/><path d="M318.50 348.60L326.45 349.48 M332.41 350.14L340.37 351.02 M346.33 351.68L354.28 352.56 M360.24 353.22L368.20 354.10 M374.16 354.76L382.11 355.64 M388.07 356.30L393.00 356.85" fill="none" stroke="#cc4255" stroke-width="2.7" stroke-dasharray="8 5"/><path d="M393.00 356.85L401.00 356.84 M407.00 356.84L415.00 356.83 M421.00 356.83L429.00 356.83 M435.00 356.82L443.00 356.82 M449.00 356.81L457.00 356.81 M463.00 356.81L467.50 356.80" fill="none" stroke="#667a15" stroke-width="2.7" stroke-dasharray="8 5"/><path d="M467.50 356.80L475.13 359.22 M480.85 361.03L488.47 363.45 M494.19 365.26L501.82 367.68 M507.54 369.49L515.16 371.91 M520.88 373.72L528.51 376.14 M534.23 377.95L541.86 380.37" fill="none" stroke="#087d99" stroke-width="2.7" stroke-dasharray="8 5"/><path d="M542.00 380.42L549.64 382.79 M555.37 384.57L563.01 386.95 M568.74 388.73L576.37 391.11 M582.10 392.89L589.74 395.27 M595.47 397.05L603.11 399.43 M608.84 401.21L616.48 403.59" fill="none" stroke="#8d6849" stroke-width="2.7" stroke-dasharray="8 5"/><path d="M616.50 403.59L620.79 396.84 M624.01 391.78L628.30 385.03 M631.52 379.96L635.81 373.21 M639.03 368.15L643.32 361.40 M646.54 356.34L650.84 349.58 M654.05 344.52L658.35 337.77 M661.57 332.71L665.86 325.95 M669.08 320.89L673.37 314.14 M676.59 309.08L680.88 302.33 M684.10 297.26L688.39 290.51" fill="none" stroke="#374151" stroke-width="2.7" stroke-dasharray="8 5"/><path d="M691.00 286.41L698.98 286.95 M704.97 287.35L712.95 287.90 M718.94 288.30L726.92 288.84 M732.90 289.25L740.89 289.79 M746.87 290.20L754.85 290.74 M760.84 291.15L765.50 291.46" fill="none" stroke="#db2777" stroke-width="2.7" stroke-dasharray="8 5"/><path d="M765.50 291.46L773.50 291.60 M779.50 291.70L787.50 291.83 M793.50 291.93L801.49 292.07 M807.49 292.17L815.49 292.30 M821.49 292.40L829.49 292.53 M835.49 292.64L840.00 292.71" fill="none" stroke="#ca8a04" stroke-width="2.7" stroke-dasharray="8 5"/><circle cx="95.00" cy="311.21" r="5" fill="#2563eb" stroke="white" stroke-width="1.5"><title>第 0 轮；s=0.32270239；平均最大 CDF 误差=0.3490%</title></circle><circle cx="169.50" cy="296.15" r="5" fill="#e16b24" stroke="white" stroke-width="1.5"><title>第 1 轮；s=0.3256896；平均最大 CDF 误差=0.2214%</title></circle><circle cx="244.00" cy="325.23" r="5" fill="#189b80" stroke="white" stroke-width="1.5"><title>第 2 轮；s=0.31992296；平均最大 CDF 误差=0.2280%</title></circle><circle cx="318.50" cy="348.60" r="5" fill="#a855b5" stroke="white" stroke-width="1.5"><title>第 3 轮；s=0.31528718；平均最大 CDF 误差=0.2402%</title></circle><circle cx="393.00" cy="356.85" r="5" fill="#cc4255" stroke="white" stroke-width="1.5"><title>第 4 轮；s=0.31365101；平均最大 CDF 误差=0.2414%</title></circle><circle cx="467.50" cy="356.80" r="5" fill="#667a15" stroke="white" stroke-width="1.5"><title>第 5 轮；s=0.31365942；平均最大 CDF 误差=0.2396%</title></circle><circle cx="542.00" cy="380.42" r="5" fill="#087d99" stroke="white" stroke-width="1.5"><title>第 6 轮；s=0.30897623；平均最大 CDF 误差=0.2468%</title></circle><circle cx="616.50" cy="403.59" r="5" fill="#8d6849" stroke="white" stroke-width="1.5"><title>第 7 轮；s=0.30437885；平均最大 CDF 误差=0.2618%</title></circle><circle cx="691.00" cy="286.41" r="5" fill="#374151" stroke="white" stroke-width="1.5"><title>第 8 轮；s=0.32762273；平均最大 CDF 误差=0.2202%</title></circle><circle cx="765.50" cy="291.46" r="5" fill="#db2777" stroke="white" stroke-width="1.5"><title>第 9 轮；s=0.32661951；平均最大 CDF 误差=0.2058%</title></circle><circle cx="840.00" cy="292.71" r="5" fill="#ca8a04" stroke="white" stroke-width="1.5"><title>第 10 轮；s=0.32637225；平均最大 CDF 误差=0.2238%</title></circle></g><text x="95.00" y="446" text-anchor="middle" class="tick">0</text><text x="169.50" y="446" text-anchor="middle" class="tick">1</text><text x="244.00" y="446" text-anchor="middle" class="tick">2</text><text x="318.50" y="446" text-anchor="middle" class="tick">3</text><text x="393.00" y="446" text-anchor="middle" class="tick">4</text><text x="467.50" y="446" text-anchor="middle" class="tick">5</text><text x="542.00" y="446" text-anchor="middle" class="tick">6</text><text x="616.50" y="446" text-anchor="middle" class="tick">7</text><text x="691.00" y="446" text-anchor="middle" class="tick">8</text><text x="765.50" y="446" text-anchor="middle" class="tick">9</text><text x="840.00" y="446" text-anchor="middle" class="tick">10</text><text x="465" y="468" text-anchor="middle" class="caption">Google 起点后的动态调整轮次（0 = 共同起点）</text><g aria-label="参数线型图例" class="caption"><path d="M95 493H130" stroke="#475569" stroke-width="2.7"/><text x="139" y="498">c：实线</text><path d="M270 493H278 M284 493H292 M298 493H305" stroke="#475569" stroke-width="2.7"/><text x="314" y="498">s：虚线</text><text x="440" y="498">圆点及通向该点的线段颜色表示轮次</text></g><g aria-label="0 · Google 起点"><circle cx="103" cy="526" r="5" fill="#2563eb"/><text x="114" y="530" font-size="12">0 · Google 起点</text></g><g aria-label="1 · 调整后"><circle cx="236" cy="526" r="5" fill="#e16b24"/><text x="247" y="530" font-size="12">1 · 调整后</text></g><g aria-label="2 · 调整后"><circle cx="369" cy="526" r="5" fill="#189b80"/><text x="380" y="530" font-size="12">2 · 调整后</text></g><g aria-label="3 · 调整后"><circle cx="502" cy="526" r="5" fill="#a855b5"/><text x="513" y="530" font-size="12">3 · 调整后</text></g><g aria-label="4 · 调整后"><circle cx="635" cy="526" r="5" fill="#cc4255"/><text x="646" y="530" font-size="12">4 · 调整后</text></g><g aria-label="5 · 调整后"><circle cx="768" cy="526" r="5" fill="#667a15"/><text x="779" y="530" font-size="12">5 · 调整后</text></g><g aria-label="6 · 调整后"><circle cx="103" cy="553" r="5" fill="#087d99"/><text x="114" y="557" font-size="12">6 · 调整后</text></g><g aria-label="7 · 调整后"><circle cx="236" cy="553" r="5" fill="#8d6849"/><text x="247" y="557" font-size="12">7 · 调整后</text></g><g aria-label="8 · 调整后"><circle cx="369" cy="553" r="5" fill="#374151"/><text x="380" y="557" font-size="12">8 · 调整后</text></g><g aria-label="9 · 调整后"><circle cx="502" cy="553" r="5" fill="#db2777"/><text x="513" y="557" font-size="12">9 · 调整后</text></g><g aria-label="10 · 调整后"><circle cx="635" cy="553" r="5" fill="#ca8a04"/><text x="646" y="557" font-size="12">10 · 调整后</text></g></svg>
